# File created by Blade
# Date/Time:  Tue Jan 27 20:12:02 2015
# Frame Rate: 120.000 fps
#------------------------------------------------------
:FULLY-SPECIFIED
:DEGREES
1457
root 8.289646 32.436482 -4.370885 6.568613 -0.292059 -1.691026
Spine 1.956573 9.395957 -4.522742
Head 11.860381 -10.354949 2.095382
LeftShoulder -16.213008 -0.491216 29.956650
LeftArm -16.909848 -39.635267 -67.429456
LeftForeArm -6.339516 -0.000000 95.790630
LeftHand 17.798003 -0.000000 12.204046
LeftHandThumb1 -26.253704 0.000000 33.147579
RightShoulder -19.829484 -22.847491 -23.767203
RightArm 10.871407 -38.104606 90.649443
RightForeArm -23.836035 0.000000 103.529719
RightHand 18.090023 0.000000 0.001768
RightHandThumb1 -24.326973 -0.000000 -32.862282
LeftUpLeg 0.092608 -3.653052 -6.381761
LeftLeg -6.542302 -0.000000 0.000000
LeftFoot -11.450637 19.154532 -14.920666
LeftToeBase 22.470398 -0.000000 -0.000000
RightUpLeg -6.010627 0.729457 5.082579
RightLeg 25.412311 -0.000000 -0.000000
RightFoot -23.327960 -9.921180 27.031474
RightToeBase 13.707442 -0.000000 -0.000000
1458
root 8.298291 32.435465 -4.367072 6.584723 -0.251202 -1.688080
Spine 1.948090 9.375073 -4.516975
Head 11.883364 -10.337124 2.072179
LeftShoulder -16.219449 -0.513612 29.950195
LeftArm -16.886976 -39.638845 -67.449366
LeftForeArm -6.332308 0.000000 95.791521
LeftHand 17.813859 -0.000000 12.129772
LeftHandThumb1 -26.253704 0.000000 33.147579
RightShoulder -19.832322 -22.835194 -23.764191
RightArm 10.813798 -38.083780 90.685271
RightForeArm -23.858260 0.000000 103.530287
RightHand 18.065499 -0.000000 0.002592
RightHandThumb1 -24.326973 -0.000000 -32.862282
LeftUpLeg 0.080100 -3.722181 -6.394706
LeftLeg -6.524698 -0.000000 0.000000
LeftFoot -11.515844 19.162639 -14.945101
LeftToeBase 22.578076 -0.000000 -0.000000
RightUpLeg -6.056454 0.825605 5.058032
RightLeg 25.787246 -0.000000 -0.000000
RightFoot -23.328765 -9.866812 27.192828
RightToeBase 13.307775 -0.000000 -0.000000
1459
root 8.308594 32.433397 -4.361815 6.585083 -0.217235 -1.673396
Spine 1.957748 9.365112 -4.519168
Head 11.899976 -10.306802 2.057302
LeftShoulder -16.229978 -0.526941 29.942332
LeftArm -16.849683 -39.637339 -67.478068
LeftForeArm -6.346676 -0.000000 95.788961
LeftHand 17.804924 -0.000000 12.076225
LeftHandThumb1 -26.253704 0.000000 33.147579
RightShoulder -19.839484 -22.832890 -23.763714
RightArm 10.771411 -38.058525 90.713775
RightForeArm -23.840672 -0.000000 103.525494
RightHand 18.088532 -0.000000 -0.016079
RightHandThumb1 -24.326973 -0.000000 -32.862282
LeftUpLeg 0.094664 -3.766378 -6.423780
LeftLeg -6.546292 -0.000000 0.000000
LeftFoot -11.393062 19.175308 -14.775212
LeftToeBase 22.309217 -0.000000 -0.000000
RightUpLeg -6.112065 0.856162 5.022844
RightLeg 26.244031 -0.000000 -0.000000
RightFoot -23.344753 -9.905552 27.246313
RightToeBase 13.293941 -0.000000 -0.000000
1460
root 8.318165 32.430676 -4.356126 6.590210 -0.169347 -1.664525
Spine 1.957291 9.338815 -4.512828
Head 11.917429 -10.266596 2.045935
LeftShoulder -16.238862 -0.549129 29.938652
LeftArm -16.832199 -39.623809 -67.487064
LeftForeArm -6.359729 0.000000 95.777383
LeftHand 17.832170 -0.000000 12.050818
LeftHandThumb1 -26.253704 0.000000 33.147579
RightShoulder -19.833125 -22.864642 -23.758022
RightArm 10.756508 -38.001568 90.726944
RightForeArm -23.788586 -0.000000 103.528762
RightHand 18.159837 -0.000000 0.137462
RightHandThumb1 -24.326973 -0.000000 -32.862282
LeftUpLeg 0.106341 -3.778617 -6.450205
LeftLeg -6.579464 -0.000000 0.000000
LeftFoot -11.435388 19.197608 -14.856533
LeftToeBase 22.540188 -0.000000 -0.000000
RightUpLeg -6.172449 0.848086 5.000281
RightLeg 26.741850 -0.000000 -0.000000
RightFoot -23.423653 -9.980268 27.346271
RightToeBase 12.698036 -0.000000 -0.000000
1461
root 8.326703 32.428385 -4.351088 6.598512 -0.124870 -1.658884
Spine 1.954241 9.303832 -4.506668
Head 11.927616 -10.235095 2.038462
LeftShoulder -16.243327 -0.600012 29.933091
LeftArm -16.873618 -39.606267 -67.433377
LeftForeArm -6.389769 -0.000000 95.766391
LeftHand 17.857579 -0.000000 11.998868
LeftHandThumb1 -26.253704 0.000000 33.147579
RightShoulder -19.812282 -22.901529 -23.755673
RightArm 10.767828 -37.972830 90.719851
RightForeArm -23.760069 -0.000000 103.529153
RightHand 18.168389 0.000000 0.169855
RightHandThumb1 -24.326973 -0.000000 -32.862282
LeftUpLeg 0.109131 -3.809033 -6.466020
LeftLeg -6.583620 -0.000000 0.000000
LeftFoot -11.479090 19.175943 -14.899130
LeftToeBase 22.654788 -0.000000 -0.000000
RightUpLeg -6.231920 0.819719 4.972141
RightLeg 27.241280 -0.000000 -0.000000
RightFoot -23.493327 -10.017667 27.492408
RightToeBase 12.651033 -0.000000 -0.000000
